<svg width="640" height="760" viewBox="0 0 640 760" fill="none" xmlns="http://www.w3.org/2000/svg">
  <rect width="640" height="760" rx="48" fill="url(#bg)"/>
  <circle cx="472" cy="148" r="126" fill="#FFFFFF" fill-opacity="0.08"/>
  <circle cx="176" cy="640" r="164" fill="#FFFFFF" fill-opacity="0.07"/>
  <path d="M208 590C208 512.68 270.68 450 348 450H362C439.32 450 502 512.68 502 590V692H208V590Z" fill="#F4B4A7"/>
  <rect x="246" y="252" width="180" height="204" rx="86" fill="#FFD3C8"/>
  <path d="M236 310C236 227.157 303.157 160 386 160V160C468.843 160 536 227.157 536 310V362H236V310Z" fill="#251C63"/>
  <path d="M234 311C234 233.68 296.68 171 374 171H384C461.32 171 524 233.68 524 311V338H234V311Z" fill="#2D1F7A"/>
  <circle cx="308" cy="346" r="10" fill="#2F2342"/>
  <circle cx="394" cy="346" r="10" fill="#2F2342"/>
  <path d="M325 402C341.667 414 361.333 414 378 402" stroke="#CC806D" stroke-width="10" stroke-linecap="round"/>
  <path d="M278 268C294.667 244.667 324.267 232 366.8 230C394.267 229.333 427.333 236 466 250" stroke="#251C63" stroke-width="26" stroke-linecap="round"/>
  <defs>
    <linearGradient id="bg" x1="60" y1="44" x2="562" y2="724" gradientUnits="userSpaceOnUse">
      <stop stop-color="#4F46E5"/>
      <stop offset="1" stop-color="#8B5CF6"/>
    </linearGradient>
  </defs>
</svg>
